<mxfile host="app.diagrams.net" modified="2024-06-21T21:47:53.109Z" agent="Mozilla/5.0 (Windows NT 10.0; Win64; x64) AppleWebKit/537.36 (KHTML, like Gecko) Chrome/126.0.0.0 Safari/537.36" etag="XsjFzD7933K4fyleSDvu" version="24.5.5" type="google">
  <diagram id="C5RBs43oDa-KdzZeNtuy" name="Page-1">
    <mxGraphModel grid="1" page="1" gridSize="10" guides="1" tooltips="1" connect="1" arrows="1" fold="1" pageScale="1" pageWidth="827" pageHeight="1169" math="0" shadow="0">
      <root>
        <mxCell id="WIyWlLk6GJQsqaUBKTNV-0" />
        <mxCell id="WIyWlLk6GJQsqaUBKTNV-1" parent="WIyWlLk6GJQsqaUBKTNV-0" />
        <mxCell id="YlSS1GPDVdgOu5zcNomF-73" value="ADMINISTRADOR" style="swimlane;fontStyle=1;align=center;verticalAlign=top;childLayout=stackLayout;horizontal=1;startSize=26;horizontalStack=0;resizeParent=1;resizeParentMax=0;resizeLast=0;collapsible=1;marginBottom=0;whiteSpace=wrap;html=1;fillColor=#f8cecc;strokeColor=#b85450;" vertex="1" parent="WIyWlLk6GJQsqaUBKTNV-1">
          <mxGeometry x="320" y="70" width="160" height="180" as="geometry" />
        </mxCell>
        <mxCell id="YlSS1GPDVdgOu5zcNomF-74" value="&lt;div&gt;&lt;ul&gt;&lt;li&gt;Id&lt;/li&gt;&lt;li&gt;Nombre&lt;/li&gt;&lt;li&gt;Email&lt;/li&gt;&lt;li&gt;Contraseña&lt;/li&gt;&lt;/ul&gt;&lt;/div&gt;&lt;div&gt;&lt;br&gt;&lt;/div&gt;" style="text;align=left;verticalAlign=top;spacingLeft=4;spacingRight=4;overflow=hidden;rotatable=0;points=[[0,0.5],[1,0.5]];portConstraint=eastwest;whiteSpace=wrap;html=1;" vertex="1" parent="YlSS1GPDVdgOu5zcNomF-73">
          <mxGeometry y="26" width="160" height="94" as="geometry" />
        </mxCell>
        <mxCell id="YlSS1GPDVdgOu5zcNomF-75" value="" style="line;strokeWidth=1;fillColor=none;align=left;verticalAlign=middle;spacingTop=-1;spacingLeft=3;spacingRight=3;rotatable=0;labelPosition=right;points=[];portConstraint=eastwest;strokeColor=inherit;" vertex="1" parent="YlSS1GPDVdgOu5zcNomF-73">
          <mxGeometry y="120" width="160" height="8" as="geometry" />
        </mxCell>
        <mxCell id="YlSS1GPDVdgOu5zcNomF-76" value=" supervisión o asignación de usuarios y roles" style="text;strokeColor=none;fillColor=none;align=left;verticalAlign=top;spacingLeft=4;spacingRight=4;overflow=hidden;rotatable=0;points=[[0,0.5],[1,0.5]];portConstraint=eastwest;whiteSpace=wrap;html=1;" vertex="1" parent="YlSS1GPDVdgOu5zcNomF-73">
          <mxGeometry y="128" width="160" height="52" as="geometry" />
        </mxCell>
        <mxCell id="YlSS1GPDVdgOu5zcNomF-77" value="ASESOR" style="swimlane;fontStyle=1;align=center;verticalAlign=top;childLayout=stackLayout;horizontal=1;startSize=26;horizontalStack=0;resizeParent=1;resizeParentMax=0;resizeLast=0;collapsible=1;marginBottom=0;whiteSpace=wrap;html=1;fillColor=#fad9d5;strokeColor=#ae4132;" vertex="1" parent="WIyWlLk6GJQsqaUBKTNV-1">
          <mxGeometry x="130" y="320" width="160" height="198" as="geometry" />
        </mxCell>
        <mxCell id="YlSS1GPDVdgOu5zcNomF-78" value="&lt;div&gt;&lt;ul&gt;&lt;li&gt;Id&lt;/li&gt;&lt;li&gt;Nombre&lt;/li&gt;&lt;li&gt;Email&lt;/li&gt;&lt;li&gt;Contraseña&lt;/li&gt;&lt;li&gt;Telefono&lt;/li&gt;&lt;li&gt;Aseguradora ID&lt;/li&gt;&lt;/ul&gt;&lt;/div&gt;&lt;div&gt;&lt;br&gt;&lt;/div&gt;" style="text;strokeColor=none;fillColor=none;align=left;verticalAlign=top;spacingLeft=4;spacingRight=4;overflow=hidden;rotatable=0;points=[[0,0.5],[1,0.5]];portConstraint=eastwest;whiteSpace=wrap;html=1;" vertex="1" parent="YlSS1GPDVdgOu5zcNomF-77">
          <mxGeometry y="26" width="160" height="114" as="geometry" />
        </mxCell>
        <mxCell id="YlSS1GPDVdgOu5zcNomF-79" value="" style="line;strokeWidth=1;fillColor=none;align=left;verticalAlign=middle;spacingTop=-1;spacingLeft=3;spacingRight=3;rotatable=0;labelPosition=right;points=[];portConstraint=eastwest;strokeColor=inherit;" vertex="1" parent="YlSS1GPDVdgOu5zcNomF-77">
          <mxGeometry y="140" width="160" height="8" as="geometry" />
        </mxCell>
        <mxCell id="YlSS1GPDVdgOu5zcNomF-80" value="pertenece a una &lt;strong&gt;Aseguradora&lt;/strong&gt;." style="text;strokeColor=none;fillColor=none;align=left;verticalAlign=top;spacingLeft=4;spacingRight=4;overflow=hidden;rotatable=0;points=[[0,0.5],[1,0.5]];portConstraint=eastwest;whiteSpace=wrap;html=1;" vertex="1" parent="YlSS1GPDVdgOu5zcNomF-77">
          <mxGeometry y="148" width="160" height="50" as="geometry" />
        </mxCell>
        <mxCell id="YlSS1GPDVdgOu5zcNomF-81" value="ASEGURADORA" style="swimlane;fontStyle=1;align=center;verticalAlign=top;childLayout=stackLayout;horizontal=1;startSize=26;horizontalStack=0;resizeParent=1;resizeParentMax=0;resizeLast=0;collapsible=1;marginBottom=0;whiteSpace=wrap;html=1;fillColor=#fad9d5;strokeColor=#ae4132;" vertex="1" parent="WIyWlLk6GJQsqaUBKTNV-1">
          <mxGeometry x="90" y="610" width="160" height="250" as="geometry" />
        </mxCell>
        <mxCell id="YlSS1GPDVdgOu5zcNomF-82" value="&lt;div&gt;&lt;ul&gt;&lt;li&gt;Id&lt;/li&gt;&lt;li&gt;Nombre&lt;/li&gt;&lt;li&gt;Direccion&amp;nbsp;&lt;/li&gt;&lt;li&gt;Telefono&lt;/li&gt;&lt;/ul&gt;&lt;/div&gt;" style="text;strokeColor=none;fillColor=none;align=left;verticalAlign=top;spacingLeft=4;spacingRight=4;overflow=hidden;rotatable=0;points=[[0,0.5],[1,0.5]];portConstraint=eastwest;whiteSpace=wrap;html=1;" vertex="1" parent="YlSS1GPDVdgOu5zcNomF-81">
          <mxGeometry y="26" width="160" height="94" as="geometry" />
        </mxCell>
        <mxCell id="YlSS1GPDVdgOu5zcNomF-83" value="" style="line;strokeWidth=1;fillColor=none;align=left;verticalAlign=middle;spacingTop=-1;spacingLeft=3;spacingRight=3;rotatable=0;labelPosition=right;points=[];portConstraint=eastwest;strokeColor=inherit;" vertex="1" parent="YlSS1GPDVdgOu5zcNomF-81">
          <mxGeometry y="120" width="160" height="8" as="geometry" />
        </mxCell>
        <mxCell id="YlSS1GPDVdgOu5zcNomF-85" value="&lt;li&gt;Puede tener múltiples asesores, cada asesor pertenece a una aseguradora.&lt;/li&gt;&lt;li&gt;Emitir múltiples pólizas, cada póliza está asociada a una aseguradora.&lt;/li&gt;" style="text;strokeColor=none;fillColor=none;align=left;verticalAlign=top;spacingLeft=4;spacingRight=4;overflow=hidden;rotatable=0;points=[[0,0.5],[1,0.5]];portConstraint=eastwest;whiteSpace=wrap;html=1;" vertex="1" parent="YlSS1GPDVdgOu5zcNomF-81">
          <mxGeometry y="128" width="160" height="122" as="geometry" />
        </mxCell>
        <mxCell id="YlSS1GPDVdgOu5zcNomF-86" value="CLIENTE" style="swimlane;fontStyle=1;align=center;verticalAlign=top;childLayout=stackLayout;horizontal=1;startSize=26;horizontalStack=0;resizeParent=1;resizeParentMax=0;resizeLast=0;collapsible=1;marginBottom=0;whiteSpace=wrap;html=1;fillColor=#fad9d5;strokeColor=#ae4132;" vertex="1" parent="WIyWlLk6GJQsqaUBKTNV-1">
          <mxGeometry x="500" y="330" width="160" height="170" as="geometry" />
        </mxCell>
        <mxCell id="YlSS1GPDVdgOu5zcNomF-87" value="&lt;ul&gt;&lt;li&gt;Id&lt;/li&gt;&lt;li&gt;Nombre&lt;/li&gt;&lt;li&gt;Email&lt;/li&gt;&lt;li&gt;Contraseña&lt;/li&gt;&lt;li&gt;Telefono&lt;/li&gt;&lt;/ul&gt;" style="text;strokeColor=none;fillColor=none;align=left;verticalAlign=top;spacingLeft=4;spacingRight=4;overflow=hidden;rotatable=0;points=[[0,0.5],[1,0.5]];portConstraint=eastwest;whiteSpace=wrap;html=1;" vertex="1" parent="YlSS1GPDVdgOu5zcNomF-86">
          <mxGeometry y="26" width="160" height="94" as="geometry" />
        </mxCell>
        <mxCell id="YlSS1GPDVdgOu5zcNomF-88" value="" style="line;strokeWidth=1;fillColor=none;align=left;verticalAlign=middle;spacingTop=-1;spacingLeft=3;spacingRight=3;rotatable=0;labelPosition=right;points=[];portConstraint=eastwest;strokeColor=inherit;" vertex="1" parent="YlSS1GPDVdgOu5zcNomF-86">
          <mxGeometry y="120" width="160" height="8" as="geometry" />
        </mxCell>
        <mxCell id="YlSS1GPDVdgOu5zcNomF-89" value="&lt;li&gt;tiene uno o más &lt;strong&gt;Vehículos&lt;/strong&gt;.&lt;br&gt;&lt;/li&gt;" style="text;strokeColor=none;fillColor=none;align=left;verticalAlign=top;spacingLeft=4;spacingRight=4;overflow=hidden;rotatable=0;points=[[0,0.5],[1,0.5]];portConstraint=eastwest;whiteSpace=wrap;html=1;" vertex="1" parent="YlSS1GPDVdgOu5zcNomF-86">
          <mxGeometry y="128" width="160" height="42" as="geometry" />
        </mxCell>
        <mxCell id="YlSS1GPDVdgOu5zcNomF-90" value="VEHICULO" style="swimlane;fontStyle=1;align=center;verticalAlign=top;childLayout=stackLayout;horizontal=1;startSize=26;horizontalStack=0;resizeParent=1;resizeParentMax=0;resizeLast=0;collapsible=1;marginBottom=0;whiteSpace=wrap;html=1;fillColor=#fad9d5;strokeColor=#ae4132;" vertex="1" parent="WIyWlLk6GJQsqaUBKTNV-1">
          <mxGeometry x="480" y="585" width="160" height="200" as="geometry" />
        </mxCell>
        <mxCell id="YlSS1GPDVdgOu5zcNomF-91" value="&lt;ul&gt;&lt;li&gt;Id&lt;/li&gt;&lt;li&gt;Cliente ID&lt;/li&gt;&lt;li&gt;Marca&lt;/li&gt;&lt;li&gt;Modelo&lt;/li&gt;&lt;li&gt;Año&lt;/li&gt;&lt;li&gt;Color&lt;/li&gt;&lt;li&gt;Numero de puertas&lt;/li&gt;&lt;/ul&gt;" style="text;strokeColor=none;fillColor=none;align=left;verticalAlign=top;spacingLeft=4;spacingRight=4;overflow=hidden;rotatable=0;points=[[0,0.5],[1,0.5]];portConstraint=eastwest;whiteSpace=wrap;html=1;" vertex="1" parent="YlSS1GPDVdgOu5zcNomF-90">
          <mxGeometry y="26" width="160" height="124" as="geometry" />
        </mxCell>
        <mxCell id="YlSS1GPDVdgOu5zcNomF-92" value="" style="line;strokeWidth=1;fillColor=none;align=left;verticalAlign=middle;spacingTop=-1;spacingLeft=3;spacingRight=3;rotatable=0;labelPosition=right;points=[];portConstraint=eastwest;strokeColor=inherit;" vertex="1" parent="YlSS1GPDVdgOu5zcNomF-90">
          <mxGeometry y="150" width="160" height="8" as="geometry" />
        </mxCell>
        <mxCell id="YlSS1GPDVdgOu5zcNomF-93" value="&lt;li&gt;Obtiene póliza&lt;/li&gt;" style="text;strokeColor=none;fillColor=none;align=left;verticalAlign=top;spacingLeft=4;spacingRight=4;overflow=hidden;rotatable=0;points=[[0,0.5],[1,0.5]];portConstraint=eastwest;whiteSpace=wrap;html=1;" vertex="1" parent="YlSS1GPDVdgOu5zcNomF-90">
          <mxGeometry y="158" width="160" height="42" as="geometry" />
        </mxCell>
        <mxCell id="YlSS1GPDVdgOu5zcNomF-94" value="POLIZA" style="swimlane;fontStyle=1;align=center;verticalAlign=top;childLayout=stackLayout;horizontal=1;startSize=26;horizontalStack=0;resizeParent=1;resizeParentMax=0;resizeLast=0;collapsible=1;marginBottom=0;whiteSpace=wrap;html=1;fillColor=#fad9d5;strokeColor=#ae4132;" vertex="1" parent="WIyWlLk6GJQsqaUBKTNV-1">
          <mxGeometry x="350" y="830" width="160" height="290" as="geometry" />
        </mxCell>
        <mxCell id="YlSS1GPDVdgOu5zcNomF-95" value="&lt;ul&gt;&lt;li&gt;Id&lt;/li&gt;&lt;li&gt;Cliente ID&lt;/li&gt;&lt;li&gt;Vehículo ID&lt;/li&gt;&lt;li&gt;Aseguradora ID&lt;/li&gt;&lt;li&gt;Tipo&lt;/li&gt;&lt;li&gt;Cobertura&lt;/li&gt;&lt;li&gt;Fecha de inicio&lt;/li&gt;&lt;li&gt;Fecha de vencimiento&lt;/li&gt;&lt;/ul&gt;" style="text;strokeColor=none;fillColor=none;align=left;verticalAlign=top;spacingLeft=4;spacingRight=4;overflow=hidden;rotatable=0;points=[[0,0.5],[1,0.5]];portConstraint=eastwest;whiteSpace=wrap;html=1;" vertex="1" parent="YlSS1GPDVdgOu5zcNomF-94">
          <mxGeometry y="26" width="160" height="154" as="geometry" />
        </mxCell>
        <mxCell id="YlSS1GPDVdgOu5zcNomF-96" value="" style="line;strokeWidth=1;fillColor=none;align=left;verticalAlign=middle;spacingTop=-1;spacingLeft=3;spacingRight=3;rotatable=0;labelPosition=right;points=[];portConstraint=eastwest;strokeColor=inherit;" vertex="1" parent="YlSS1GPDVdgOu5zcNomF-94">
          <mxGeometry y="180" width="160" height="8" as="geometry" />
        </mxCell>
        <mxCell id="YlSS1GPDVdgOu5zcNomF-97" value="&lt;li&gt;&lt;span style=&quot;background-color: initial;&quot;&gt;Está asociada a un cliente.&lt;/span&gt;&lt;br&gt;&lt;/li&gt;&lt;li&gt;Cubre un vehículo específico.&lt;/li&gt;&lt;li&gt;Emitido por una aseguradora.&lt;/li&gt;" style="text;strokeColor=none;fillColor=none;align=left;verticalAlign=top;spacingLeft=4;spacingRight=4;overflow=hidden;rotatable=0;points=[[0,0.5],[1,0.5]];portConstraint=eastwest;whiteSpace=wrap;html=1;" vertex="1" parent="YlSS1GPDVdgOu5zcNomF-94">
          <mxGeometry y="188" width="160" height="102" as="geometry" />
        </mxCell>
        <mxCell id="YlSS1GPDVdgOu5zcNomF-105" value="Pertenece" style="html=1;verticalAlign=bottom;endArrow=block;curved=0;rounded=0;exitX=0.344;exitY=1.02;exitDx=0;exitDy=0;exitPerimeter=0;entryX=0.55;entryY=-0.012;entryDx=0;entryDy=0;entryPerimeter=0;" edge="1" parent="WIyWlLk6GJQsqaUBKTNV-1" source="YlSS1GPDVdgOu5zcNomF-80" target="YlSS1GPDVdgOu5zcNomF-81">
          <mxGeometry width="80" relative="1" as="geometry">
            <mxPoint x="228" y="630" as="sourcePoint" />
            <mxPoint x="255" y="750" as="targetPoint" />
          </mxGeometry>
        </mxCell>
        <mxCell id="YlSS1GPDVdgOu5zcNomF-107" value="Supervisa" style="html=1;verticalAlign=bottom;endArrow=block;curved=0;rounded=0;entryX=0.25;entryY=0;entryDx=0;entryDy=0;exitX=0.856;exitY=1.058;exitDx=0;exitDy=0;exitPerimeter=0;" edge="1" parent="WIyWlLk6GJQsqaUBKTNV-1" source="YlSS1GPDVdgOu5zcNomF-76" target="YlSS1GPDVdgOu5zcNomF-86">
          <mxGeometry width="80" relative="1" as="geometry">
            <mxPoint x="460" y="310" as="sourcePoint" />
            <mxPoint x="540" y="310" as="targetPoint" />
          </mxGeometry>
        </mxCell>
        <mxCell id="YlSS1GPDVdgOu5zcNomF-108" value="Supervisa" style="html=1;verticalAlign=bottom;endArrow=block;curved=0;rounded=0;entryX=0.319;entryY=-0.01;entryDx=0;entryDy=0;entryPerimeter=0;exitX=0.138;exitY=1.019;exitDx=0;exitDy=0;exitPerimeter=0;" edge="1" parent="WIyWlLk6GJQsqaUBKTNV-1" source="YlSS1GPDVdgOu5zcNomF-76" target="YlSS1GPDVdgOu5zcNomF-77">
          <mxGeometry width="80" relative="1" as="geometry">
            <mxPoint x="200" y="340" as="sourcePoint" />
            <mxPoint x="280" y="340" as="targetPoint" />
          </mxGeometry>
        </mxCell>
        <mxCell id="YlSS1GPDVdgOu5zcNomF-109" value="Varios" style="html=1;verticalAlign=bottom;endArrow=block;curved=0;rounded=0;exitX=0.369;exitY=1.048;exitDx=0;exitDy=0;exitPerimeter=0;entryX=0.619;entryY=-0.02;entryDx=0;entryDy=0;entryPerimeter=0;" edge="1" parent="WIyWlLk6GJQsqaUBKTNV-1" source="YlSS1GPDVdgOu5zcNomF-89" target="YlSS1GPDVdgOu5zcNomF-90">
          <mxGeometry width="80" relative="1" as="geometry">
            <mxPoint x="460" y="620" as="sourcePoint" />
            <mxPoint x="540" y="620" as="targetPoint" />
          </mxGeometry>
        </mxCell>
        <mxCell id="YlSS1GPDVdgOu5zcNomF-110" value="Emitida" style="html=1;verticalAlign=bottom;endArrow=block;curved=0;rounded=0;exitX=-0.006;exitY=0.682;exitDx=0;exitDy=0;exitPerimeter=0;entryX=0.75;entryY=0.984;entryDx=0;entryDy=0;entryPerimeter=0;" edge="1" parent="WIyWlLk6GJQsqaUBKTNV-1" source="YlSS1GPDVdgOu5zcNomF-95" target="YlSS1GPDVdgOu5zcNomF-85">
          <mxGeometry width="80" relative="1" as="geometry">
            <mxPoint x="460" y="820" as="sourcePoint" />
            <mxPoint x="540" y="820" as="targetPoint" />
          </mxGeometry>
        </mxCell>
      </root>
    </mxGraphModel>
  </diagram>
</mxfile>
